<?xml version="1.0" encoding="UTF-8" standalone="no"?>
<!DOCTYPE svg PUBLIC "-//W3C//DTD SVG 1.1//EN"
 "http://www.w3.org/Graphics/SVG/1.1/DTD/svg11.dtd">
<!-- Generated by graphviz version 2.38.0 (20140413.2041)
 -->
<!-- Title: G Pages: 1 -->
<svg width="206pt" height="392pt"
 viewBox="0.00 0.00 206.00 392.00" xmlns="http://www.w3.org/2000/svg" xmlns:xlink="http://www.w3.org/1999/xlink">
<g id="graph0" class="graph" transform="scale(1 1) rotate(0) translate(4 388)">
<title>G</title>
<polygon fill="white" stroke="none" points="-4,4 -4,-388 202,-388 202,4 -4,4"/>
<!-- n1003 -->
<g id="node1" class="node"><title>n1003</title>
<ellipse fill="none" stroke="red" cx="99" cy="-192" rx="27" ry="18"/>
<text text-anchor="middle" x="99" y="-188.3" font-family="Times,serif" font-size="14.00">B</text>
</g>
<!-- n1007 -->
<g id="node4" class="node"><title>n1007</title>
<ellipse fill="none" stroke="red" cx="27" cy="-105" rx="27" ry="18"/>
<text text-anchor="middle" x="27" y="-101.3" font-family="Times,serif" font-size="14.00">D</text>
</g>
<!-- n1003&#45;&#45;n1007 -->
<g id="edge1" class="edge"><title>n1003&#45;&#45;n1007</title>
<path fill="none" stroke="black" d="M86.1278,-175.804C73.0225,-160.332 52.8257,-136.489 39.7607,-121.065"/>
<text text-anchor="middle" x="75" y="-144.8" font-family="Times,serif" font-size="14.00">12</text>
</g>
<!-- n1008 -->
<g id="node5" class="node"><title>n1008</title>
<ellipse fill="none" stroke="red" cx="99" cy="-105" rx="27" ry="18"/>
<text text-anchor="middle" x="99" y="-101.3" font-family="Times,serif" font-size="14.00">F</text>
</g>
<!-- n1003&#45;&#45;n1008 -->
<g id="edge5" class="edge"><title>n1003&#45;&#45;n1008</title>
<path fill="none" stroke="black" d="M99,-173.799C99,-159.052 99,-137.915 99,-123.175"/>
<text text-anchor="middle" x="106" y="-144.8" font-family="Times,serif" font-size="14.00">13</text>
</g>
<!-- n1002 -->
<g id="node2" class="node"><title>n1002</title>
<ellipse fill="none" stroke="red" cx="145" cy="-279" rx="27" ry="18"/>
<text text-anchor="middle" x="145" y="-275.3" font-family="Times,serif" font-size="14.00">C</text>
</g>
<!-- n1002&#45;&#45;n1003 -->
<g id="edge6" class="edge"><title>n1002&#45;&#45;n1003</title>
<path fill="none" stroke="black" d="M136.131,-261.611C127.933,-246.463 115.825,-224.089 107.686,-209.05"/>
<text text-anchor="middle" x="128.5" y="-231.8" font-family="Times,serif" font-size="14.00">9</text>
</g>
<!-- n1004 -->
<g id="node9" class="node"><title>n1004</title>
<ellipse fill="none" stroke="red" cx="171" cy="-192" rx="27" ry="18"/>
<text text-anchor="middle" x="171" y="-188.3" font-family="Times,serif" font-size="14.00">E</text>
</g>
<!-- n1002&#45;&#45;n1004 -->
<g id="edge7" class="edge"><title>n1002&#45;&#45;n1004</title>
<path fill="none" stroke="black" d="M150.137,-261.207C154.695,-246.305 161.319,-224.649 165.874,-209.758"/>
<text text-anchor="middle" x="163.5" y="-231.8" font-family="Times,serif" font-size="14.00">9</text>
</g>
<!-- n1001 -->
<g id="node3" class="node"><title>n1001</title>
<ellipse fill="none" stroke="red" cx="73" cy="-279" rx="27" ry="18"/>
<text text-anchor="middle" x="73" y="-275.3" font-family="Times,serif" font-size="14.00">B</text>
</g>
<!-- n1017 -->
<g id="node8" class="node"><title>n1017</title>
<ellipse fill="none" stroke="green" cx="99" cy="-18" rx="27" ry="18"/>
<text text-anchor="middle" x="99" y="-14.3" font-family="Times,serif" font-size="14.00">Ziel</text>
</g>
<!-- n1008&#45;&#45;n1017 -->
<g id="edge9" class="edge"><title>n1008&#45;&#45;n1017</title>
<path fill="none" stroke="black" d="M99,-86.799C99,-72.0519 99,-50.9152 99,-36.1754"/>
<text text-anchor="middle" x="106" y="-57.8" font-family="Times,serif" font-size="14.00">11</text>
</g>
<!-- n1011 -->
<g id="node6" class="node"><title>n1011</title>
<ellipse fill="none" stroke="red" cx="171" cy="-105" rx="27" ry="18"/>
<text text-anchor="middle" x="171" y="-101.3" font-family="Times,serif" font-size="14.00">D</text>
</g>
<!-- n1014 -->
<g id="node7" class="node"><title>n1014</title>
<ellipse fill="none" stroke="blue" cx="171" cy="-18" rx="27" ry="18"/>
<text text-anchor="middle" x="171" y="-14.3" font-family="Times,serif" font-size="14.00">F</text>
</g>
<!-- n1011&#45;&#45;n1014 -->
<g id="edge3" class="edge"><title>n1011&#45;&#45;n1014</title>
<path fill="none" stroke="black" d="M171,-86.799C171,-72.0519 171,-50.9152 171,-36.1754"/>
<text text-anchor="middle" x="178" y="-57.8" font-family="Times,serif" font-size="14.00">14</text>
</g>
<!-- n1004&#45;&#45;n1011 -->
<g id="edge2" class="edge"><title>n1004&#45;&#45;n1011</title>
<path fill="none" stroke="black" d="M171,-173.799C171,-159.052 171,-137.915 171,-123.175"/>
<text text-anchor="middle" x="178" y="-144.8" font-family="Times,serif" font-size="14.00">11</text>
</g>
<!-- n999 -->
<g id="node10" class="node"><title>n999</title>
<ellipse fill="none" stroke="red" cx="100" cy="-366" rx="27.0966" ry="18"/>
<text text-anchor="middle" x="100" y="-362.3" font-family="Times,serif" font-size="14.00">Start</text>
</g>
<!-- n999&#45;&#45;n1002 -->
<g id="edge8" class="edge"><title>n999&#45;&#45;n1002</title>
<path fill="none" stroke="black" d="M108.676,-348.611C116.645,-333.56 128.39,-311.374 136.35,-296.339"/>
<text text-anchor="middle" x="133" y="-318.8" font-family="Times,serif" font-size="14.00">10</text>
</g>
<!-- n999&#45;&#45;n1001 -->
<g id="edge4" class="edge"><title>n999&#45;&#45;n1001</title>
<path fill="none" stroke="black" d="M94.6657,-348.207C89.9322,-333.305 83.0534,-311.649 78.3232,-296.758"/>
<text text-anchor="middle" x="96" y="-318.8" font-family="Times,serif" font-size="14.00">20</text>
</g>
</g>
</svg>
