<?xml version="1.0" encoding="UTF-8" standalone="no"?>
<!DOCTYPE svg PUBLIC "-//W3C//DTD SVG 1.1//EN"
 "http://www.w3.org/Graphics/SVG/1.1/DTD/svg11.dtd">
<!-- Generated by graphviz version 2.38.0 (20140413.2041)
 -->
<!-- Title: G Pages: 1 -->
<svg width="206pt" height="262pt"
 viewBox="0.00 0.00 206.03 262.28" xmlns="http://www.w3.org/2000/svg" xmlns:xlink="http://www.w3.org/1999/xlink">
<g id="graph0" class="graph" transform="scale(1 1) rotate(0) translate(108.694 159.075)">
<title>G</title>
<polygon fill="white" stroke="none" points="-108.694,103.206 -108.694,-159.075 97.3403,-159.075 97.3403,103.206 -108.694,103.206"/>
<!-- n3 -->
<g id="node1" class="node"><title>n3</title>
<ellipse fill="none" stroke="red" cx="-9.91365" cy="81.2062" rx="27" ry="18"/>
<text text-anchor="middle" x="-9.91365" y="84.9062" font-family="Times,serif" font-size="14.00">C</text>
</g>
<!-- n2 -->
<g id="node7" class="node"><title>n2</title>
<ellipse fill="none" stroke="red" cx="-26.6061" cy="4.9231" rx="27" ry="18"/>
<text text-anchor="middle" x="-26.6061" y="8.6231" font-family="Times,serif" font-size="14.00">B</text>
</g>
<!-- n3&#45;&#45;n2 -->
<g id="edge2" class="edge"><title>n3&#45;&#45;n2</title>
<path fill="none" stroke="black" d="M-13.8695,63.1282C-16.5305,50.968 -20.0237,35.0043 -22.6787,22.8714"/>
</g>
<!-- n5 -->
<g id="node2" class="node"><title>n5</title>
<ellipse fill="none" stroke="red" cx="66.3403" cy="66.1708" rx="27" ry="18"/>
<text text-anchor="middle" x="66.3403" y="69.8708" font-family="Times,serif" font-size="14.00">E</text>
</g>
<!-- n5&#45;&#45;n3 -->
<g id="edge6" class="edge"><title>n5&#45;&#45;n3</title>
<path fill="none" stroke="black" d="M40.098,71.3451C32.3434,72.8742 23.86,74.5469 16.1187,76.0733"/>
</g>
<!-- n4 -->
<g id="node6" class="node"><title>n4</title>
<ellipse fill="none" stroke="red" cx="50.0493" cy="-9.66313" rx="27" ry="18"/>
<text text-anchor="middle" x="50.0493" y="-5.96313" font-family="Times,serif" font-size="14.00">D</text>
</g>
<!-- n5&#45;&#45;n4 -->
<g id="edge9" class="edge"><title>n5&#45;&#45;n4</title>
<path fill="none" stroke="black" d="M62.4796,48.1992C59.8826,36.1107 56.4734,20.241 53.8823,8.17946"/>
</g>
<!-- n1 -->
<g id="node3" class="node"><title>n1</title>
<ellipse fill="none" stroke="red" cx="-77.3965" cy="57.5295" rx="27.0966" ry="18"/>
<text text-anchor="middle" x="-77.3965" y="61.2295" font-family="Times,serif" font-size="14.00">Start</text>
</g>
<!-- n1&#45;&#45;n3 -->
<g id="edge7" class="edge"><title>n1&#45;&#45;n3</title>
<path fill="none" stroke="black" d="M-53.0336,66.0773C-46.8421,68.2496 -40.1929,70.5826 -34.0145,72.7503"/>
</g>
<!-- n6 -->
<g id="node4" class="node"><title>n6</title>
<ellipse fill="none" stroke="red" cx="0.59445" cy="-63.0914" rx="27" ry="18"/>
<text text-anchor="middle" x="0.59445" y="-59.3914" font-family="Times,serif" font-size="14.00">F</text>
</g>
<!-- n7 -->
<g id="node5" class="node"><title>n7</title>
<ellipse fill="none" stroke="green" cx="-3.06774" cy="-137.075" rx="27" ry="18"/>
<text text-anchor="middle" x="-3.06774" y="-133.375" font-family="Times,serif" font-size="14.00">Ziel</text>
</g>
<!-- n6&#45;&#45;n7 -->
<g id="edge4" class="edge"><title>n6&#45;&#45;n7</title>
<path fill="none" stroke="black" d="M-0.31081,-81.3795C-0.878467,-92.8473 -1.60722,-107.57 -2.17289,-118.997"/>
</g>
<!-- n4&#45;&#45;n6 -->
<g id="edge3" class="edge"><title>n4&#45;&#45;n6</title>
<path fill="none" stroke="black" d="M35.7449,-25.1168C29.2407,-32.1436 21.5589,-40.4426 15.038,-47.4874"/>
</g>
<!-- n2&#45;&#45;n1 -->
<g id="edge1" class="edge"><title>n2&#45;&#45;n1</title>
<path fill="none" stroke="black" d="M-41.2968,20.139C-47.9767,27.0577 -55.8659,35.2291 -62.5629,42.1655"/>
</g>
<!-- n2&#45;&#45;n6 -->
<g id="edge5" class="edge"><title>n2&#45;&#45;n6</title>
<path fill="none" stroke="black" d="M-19.6013,-12.5923C-15.5716,-22.6684 -10.5227,-35.2932 -6.48118,-45.399"/>
</g>
<!-- n2&#45;&#45;n4 -->
<g id="edge8" class="edge"><title>n2&#45;&#45;n4</title>
<path fill="none" stroke="black" d="M-0.225692,-0.0966503C7.56974,-1.57999 16.0978,-3.20274 23.8799,-4.68354"/>
</g>
</g>
</svg>
