<?xml version="1.0" encoding="UTF-8" standalone="no"?>
<!DOCTYPE svg PUBLIC "-//W3C//DTD SVG 1.1//EN"
 "http://www.w3.org/Graphics/SVG/1.1/DTD/svg11.dtd">
<!-- Generated by graphviz version 2.38.0 (20140413.2041)
 -->
<!-- Title: G Pages: 1 -->
<svg width="206pt" height="476pt"
 viewBox="0.00 0.00 206.00 476.00" xmlns="http://www.w3.org/2000/svg" xmlns:xlink="http://www.w3.org/1999/xlink">
<g id="graph0" class="graph" transform="scale(1 1) rotate(0) translate(4 472)">
<title>G</title>
<polygon fill="white" stroke="none" points="-4,4 -4,-472 202,-472 202,4 -4,4"/>
<!-- n1004 -->
<g id="node1" class="node"><title>n1004</title>
<ellipse fill="none" stroke="blue" cx="99" cy="-306" rx="27" ry="18"/>
<text text-anchor="middle" x="99" y="-302.3" font-family="Times,serif" font-size="14.00">F</text>
</g>
<!-- n1006 -->
<g id="node2" class="node"><title>n1006</title>
<ellipse fill="none" stroke="red" cx="171" cy="-306" rx="27" ry="18"/>
<text text-anchor="middle" x="171" y="-302.3" font-family="Times,serif" font-size="14.00">C</text>
</g>
<!-- n1008 -->
<g id="node5" class="node"><title>n1008</title>
<ellipse fill="none" stroke="red" cx="171" cy="-234" rx="27" ry="18"/>
<text text-anchor="middle" x="171" y="-230.3" font-family="Times,serif" font-size="14.00">E</text>
</g>
<!-- n1006&#45;&#45;n1008 -->
<g id="edge6" class="edge"><title>n1006&#45;&#45;n1008</title>
<path fill="none" stroke="magenta" d="M171,-287.697C171,-276.846 171,-262.917 171,-252.104"/>
</g>
<!-- n1002 -->
<g id="node3" class="node"><title>n1002</title>
<ellipse fill="none" stroke="red" cx="99" cy="-378" rx="27" ry="18"/>
<text text-anchor="middle" x="99" y="-374.3" font-family="Times,serif" font-size="14.00">B</text>
</g>
<!-- n1002&#45;&#45;n1004 -->
<g id="edge5" class="edge"><title>n1002&#45;&#45;n1004</title>
<path fill="none" stroke="black" d="M99,-359.697C99,-348.846 99,-334.917 99,-324.104"/>
</g>
<!-- n1002&#45;&#45;n1006 -->
<g id="edge7" class="edge"><title>n1002&#45;&#45;n1006</title>
<path fill="none" stroke="magenta" d="M113.57,-362.834C125.98,-350.77 143.731,-333.512 156.204,-321.385"/>
</g>
<!-- n1005 -->
<g id="node9" class="node"><title>n1005</title>
<ellipse fill="none" stroke="blue" cx="27" cy="-306" rx="27" ry="18"/>
<text text-anchor="middle" x="27" y="-302.3" font-family="Times,serif" font-size="14.00">D</text>
</g>
<!-- n1002&#45;&#45;n1005 -->
<g id="edge4" class="edge"><title>n1002&#45;&#45;n1005</title>
<path fill="none" stroke="black" d="M84.4297,-362.834C72.0202,-350.77 54.2694,-333.512 41.7957,-321.385"/>
</g>
<!-- n1001 -->
<g id="node4" class="node"><title>n1001</title>
<ellipse fill="none" stroke="blue" cx="27" cy="-378" rx="27" ry="18"/>
<text text-anchor="middle" x="27" y="-374.3" font-family="Times,serif" font-size="14.00">C</text>
</g>
<!-- n1010 -->
<g id="node6" class="node"><title>n1010</title>
<ellipse fill="none" stroke="blue" cx="171" cy="-162" rx="27" ry="18"/>
<text text-anchor="middle" x="171" y="-158.3" font-family="Times,serif" font-size="14.00">D</text>
</g>
<!-- n1008&#45;&#45;n1010 -->
<g id="edge9" class="edge"><title>n1008&#45;&#45;n1010</title>
<path fill="none" stroke="black" d="M171,-215.697C171,-204.846 171,-190.917 171,-180.104"/>
</g>
<!-- n1012 -->
<!-- n1010&#45;&#45;n1012 -->
<!-- n1015 -->
<!-- n1012&#45;&#45;n1015 -->
<!-- n999 -->
<g id="node10" class="node"><title>n999</title>
<ellipse fill="none" stroke="red" cx="63" cy="-450" rx="27.0966" ry="18"/>
<text text-anchor="middle" x="63" y="-446.3" font-family="Times,serif" font-size="14.00">Start</text>
</g>
<!-- n999&#45;&#45;n1002 -->
<g id="edge8" class="edge"><title>n999&#45;&#45;n1002</title>
<path fill="none" stroke="magenta" d="M71.3496,-432.765C77.1655,-421.456 84.8897,-406.437 90.6957,-395.147"/>
</g>
<!-- n999&#45;&#45;n1001 -->
<g id="edge2" class="edge"><title>n999&#45;&#45;n1001</title>
<path fill="none" stroke="black" d="M54.6504,-432.765C48.8345,-421.456 41.1103,-406.437 35.3043,-395.147"/>
</g>
</g>
</svg>
