<?xml version="1.0" encoding="UTF-8" standalone="no"?>
<!DOCTYPE svg PUBLIC "-//W3C//DTD SVG 1.1//EN"
 "http://www.w3.org/Graphics/SVG/1.1/DTD/svg11.dtd">
<!-- Generated by graphviz version 2.38.0 (20140413.2041)
 -->
<!-- Title: G Pages: 1 -->
<svg width="470pt" height="236pt"
 viewBox="0.00 0.00 469.54 235.62" xmlns="http://www.w3.org/2000/svg" xmlns:xlink="http://www.w3.org/1999/xlink">
<g id="graph0" class="graph" transform="scale(1 1) rotate(0) translate(4 231.621)">
<title>G</title>
<polygon fill="white" stroke="none" points="-4,4 -4,-231.621 465.54,-231.621 465.54,4 -4,4"/>
<!-- 1LStart -->
<g id="node1" class="node"><title>1LStart</title>
<ellipse fill="none" stroke="black" cx="27.2976" cy="-173.025" rx="27.0966" ry="18"/>
<text text-anchor="middle" x="27.2976" y="-169.325" font-family="Times,serif" font-size="14.00">Start</text>
</g>
<!-- 2LB -->
<g id="node2" class="node"><title>2LB</title>
<ellipse fill="none" stroke="black" cx="139.93" cy="-209.621" rx="27" ry="18"/>
<text text-anchor="middle" x="139.93" y="-205.921" font-family="Times,serif" font-size="14.00">B</text>
</g>
<!-- 1LStart&#45;&gt;2LB -->
<g id="edge2" class="edge"><title>1LStart&#45;&gt;2LB</title>
<path fill="none" stroke="black" d="M52.0152,-181.056C67.8217,-186.192 88.5386,-192.923 105.891,-198.561"/>
<polygon fill="black" stroke="black" points="105.065,-201.973 115.657,-201.735 107.228,-195.316 105.065,-201.973"/>
</g>
<!-- 3LC -->
<g id="node4" class="node"><title>3LC</title>
<ellipse fill="none" stroke="black" cx="27.2976" cy="-54.5964" rx="27" ry="18"/>
<text text-anchor="middle" x="27.2976" y="-50.8964" font-family="Times,serif" font-size="14.00">C</text>
</g>
<!-- 1LStart&#45;&gt;3LC -->
<g id="edge7" class="edge"><title>1LStart&#45;&gt;3LC</title>
<path fill="none" stroke="black" d="M27.2976,-154.78C27.2976,-135.599 27.2976,-105.168 27.2976,-82.8738"/>
<polygon fill="black" stroke="black" points="30.7977,-82.6676 27.2976,-72.6677 23.7977,-82.6677 30.7977,-82.6676"/>
</g>
<!-- 4LD -->
<g id="node5" class="node"><title>4LD</title>
<ellipse fill="none" stroke="black" cx="209.54" cy="-113.811" rx="27" ry="18"/>
<text text-anchor="middle" x="209.54" y="-110.111" font-family="Times,serif" font-size="14.00">D</text>
</g>
<!-- 2LB&#45;&gt;4LD -->
<g id="edge4" class="edge"><title>2LB&#45;&gt;4LD</title>
<path fill="none" stroke="black" d="M151.738,-193.368C162.639,-178.365 178.986,-155.865 191.518,-138.617"/>
<polygon fill="black" stroke="black" points="194.627,-140.291 197.674,-130.143 188.964,-136.176 194.627,-140.291"/>
</g>
<!-- 5LE -->
<g id="node3" class="node"><title>5LE</title>
<ellipse fill="none" stroke="black" cx="139.93" cy="-18" rx="27" ry="18"/>
<text text-anchor="middle" x="139.93" y="-14.3" font-family="Times,serif" font-size="14.00">E</text>
</g>
<!-- 3LC&#45;&gt;5LE -->
<g id="edge3" class="edge"><title>3LC&#45;&gt;5LE</title>
<path fill="none" stroke="black" d="M51.7371,-46.6555C67.5297,-41.5242 88.3092,-34.7725 105.731,-29.1118"/>
<polygon fill="black" stroke="black" points="107.109,-32.3443 115.538,-25.9254 104.946,-25.6869 107.109,-32.3443"/>
</g>
<!-- 4LD&#45;&gt;5LE -->
<g id="edge1" class="edge"><title>4LD&#45;&gt;5LE</title>
<path fill="none" stroke="black" d="M197.732,-97.5576C186.831,-82.5545 170.484,-60.0541 157.952,-42.806"/>
<polygon fill="black" stroke="black" points="160.506,-40.3656 151.796,-34.3327 154.842,-44.4801 160.506,-40.3656"/>
</g>
<!-- 6LF -->
<g id="node7" class="node"><title>6LF</title>
<ellipse fill="none" stroke="black" cx="308.54" cy="-113.811" rx="27" ry="18"/>
<text text-anchor="middle" x="308.54" y="-110.111" font-family="Times,serif" font-size="14.00">F</text>
</g>
<!-- 4LD&#45;&gt;6LF -->
<g id="edge6" class="edge"><title>4LD&#45;&gt;6LF</title>
<path fill="none" stroke="black" d="M236.592,-113.811C247.287,-113.811 259.756,-113.811 271.281,-113.811"/>
<polygon fill="black" stroke="black" points="271.521,-117.311 281.521,-113.811 271.521,-110.311 271.521,-117.311"/>
</g>
<!-- 7LZiel -->
<g id="node6" class="node"><title>7LZiel</title>
<ellipse fill="none" stroke="black" cx="434.54" cy="-113.811" rx="27" ry="18"/>
<text text-anchor="middle" x="434.54" y="-110.111" font-family="Times,serif" font-size="14.00">Ziel</text>
</g>
<!-- 6LF&#45;&gt;7LZiel -->
<g id="edge5" class="edge"><title>6LF&#45;&gt;7LZiel</title>
<path fill="none" stroke="black" d="M335.57,-113.811C353.468,-113.811 377.191,-113.811 396.924,-113.811"/>
<polygon fill="black" stroke="black" points="397.12,-117.311 407.12,-113.811 397.12,-110.311 397.12,-117.311"/>
</g>
</g>
</svg>
