<?xml version="1.0" encoding="UTF-8" standalone="no"?>
<!DOCTYPE svg PUBLIC "-//W3C//DTD SVG 1.1//EN"
 "http://www.w3.org/Graphics/SVG/1.1/DTD/svg11.dtd">
<!-- Generated by graphviz version 2.38.0 (20140413.2041)
 -->
<!-- Title: G Pages: 1 -->
<svg width="280pt" height="188pt"
 viewBox="0.00 0.00 280.34 187.80" xmlns="http://www.w3.org/2000/svg" xmlns:xlink="http://www.w3.org/1999/xlink">
<g id="graph0" class="graph" transform="scale(1 1) rotate(0) translate(168.048 88.8127)">
<title>G</title>
<polygon fill="white" stroke="none" points="-168.048,98.9834 -168.048,-88.8127 112.287,-88.8127 112.287,98.9834 -168.048,98.9834"/>
<!-- n7 -->
<g id="node1" class="node"><title>n7</title>
<ellipse fill="none" stroke="black" cx="-137.048" cy="4.02717" rx="27" ry="18"/>
<text text-anchor="middle" x="-137.048" y="7.72717" font-family="Times,serif" font-size="14.00">Ziel</text>
</g>
<!-- n3 -->
<g id="node2" class="node"><title>n3</title>
<ellipse fill="none" stroke="black" cx="81.2873" cy="9.33094" rx="27" ry="18"/>
<text text-anchor="middle" x="81.2873" y="13.0309" font-family="Times,serif" font-size="14.00">C</text>
</g>
<!-- n4 -->
<g id="node3" class="node"><title>n4</title>
<ellipse fill="none" stroke="black" cx="-10.0353" cy="-49.9804" rx="27" ry="18"/>
<text text-anchor="middle" x="-10.0353" y="-46.2804" font-family="Times,serif" font-size="14.00">D</text>
</g>
<!-- n5 -->
<g id="node4" class="node"><title>n5</title>
<ellipse fill="none" stroke="black" cx="65.6857" cy="-66.8127" rx="27" ry="18"/>
<text text-anchor="middle" x="65.6857" y="-63.1127" font-family="Times,serif" font-size="14.00">E</text>
</g>
<!-- n5&#45;&#45;n3 -->
<g id="edge1" class="edge"><title>n5&#45;&#45;n3</title>
<path fill="none" stroke="black" d="M69.3831,-48.7677C71.8701,-36.6298 75.135,-20.6953 77.6165,-8.58451"/>
<text text-anchor="middle" x="69.9998" y="-32.4761" font-family="Times,serif" font-size="14.00">9</text>
</g>
<!-- n5&#45;&#45;n4 -->
<g id="edge6" class="edge"><title>n5&#45;&#45;n4</title>
<path fill="none" stroke="black" d="M40.05,-61.1141C32.2414,-59.3782 23.6555,-57.4697 15.8316,-55.7305"/>
<text text-anchor="middle" x="31.4408" y="-47.2223" font-family="Times,serif" font-size="14.00">11</text>
</g>
<!-- n1 -->
<g id="node5" class="node"><title>n1</title>
<ellipse fill="none" stroke="blue" cx="58.0733" cy="76.9834" rx="27.0966" ry="18"/>
<text text-anchor="middle" x="58.0733" y="80.6834" font-family="Times,serif" font-size="14.00">Start</text>
</g>
<!-- n1&#45;&#45;n3 -->
<g id="edge4" class="edge"><title>n1&#45;&#45;n3</title>
<path fill="none" stroke="black" d="M64.1725,59.2085C67.5577,49.343 71.7567,37.106 75.1483,27.222"/>
<text text-anchor="middle" x="62.6604" y="39.4152" font-family="Times,serif" font-size="14.00">10</text>
</g>
<!-- n6 -->
<g id="node6" class="node"><title>n6</title>
<ellipse fill="none" stroke="black" cx="-63.0898" cy="-0.105208" rx="27" ry="18"/>
<text text-anchor="middle" x="-63.0898" y="3.59479" font-family="Times,serif" font-size="14.00">F</text>
</g>
<!-- n6&#45;&#45;n7 -->
<g id="edge2" class="edge"><title>n6&#45;&#45;n7</title>
<path fill="none" stroke="black" d="M-90.2093,1.41007C-96.6405,1.76942 -103.501,2.15274 -109.932,2.51208"/>
<text text-anchor="middle" x="-100.071" y="13.1611" font-family="Times,serif" font-size="14.00">11</text>
</g>
<!-- n6&#45;&#45;n4 -->
<g id="edge9" class="edge"><title>n6&#45;&#45;n4</title>
<path fill="none" stroke="black" d="M-47.4586,-14.7997C-40.6119,-21.2361 -32.593,-28.7745 -25.738,-35.2187"/>
<text text-anchor="middle" x="-29.5983" y="-13.8092" font-family="Times,serif" font-size="14.00">14</text>
</g>
<!-- n2 -->
<g id="node7" class="node"><title>n2</title>
<ellipse fill="none" stroke="black" cx="5.12708" cy="26.5568" rx="27" ry="18"/>
<text text-anchor="middle" x="5.12708" y="30.2568" font-family="Times,serif" font-size="14.00">B</text>
</g>
<!-- n2&#45;&#45;n3 -->
<g id="edge3" class="edge"><title>n2&#45;&#45;n3</title>
<path fill="none" stroke="black" d="M30.9115,20.7249C38.8517,18.929 47.591,16.9524 55.5295,15.1568"/>
<text text-anchor="middle" x="39.7205" y="14.1409" font-family="Times,serif" font-size="14.00">9</text>
</g>
<!-- n2&#45;&#45;n4 -->
<g id="edge5" class="edge"><title>n2&#45;&#45;n4</title>
<path fill="none" stroke="black" d="M1.53381,8.41858C-0.883196,-3.78208 -4.05621,-19.799 -6.46781,-31.9724"/>
<text text-anchor="middle" x="-9.467" y="-15.5769" font-family="Times,serif" font-size="14.00">12</text>
</g>
<!-- n2&#45;&#45;n1 -->
<g id="edge8" class="edge"><title>n2&#45;&#45;n1</title>
<path fill="none" stroke="black" d="M20.7263,41.4137C27.5591,47.9214 35.5617,55.5431 42.4026,62.0584"/>
<text text-anchor="middle" x="24.5645" y="62.9361" font-family="Times,serif" font-size="14.00">20</text>
</g>
<!-- n2&#45;&#45;n6 -->
<g id="edge7" class="edge"><title>n2&#45;&#45;n6</title>
<path fill="none" stroke="black" d="M-18.3493,17.3813C-25.1324,14.7301 -32.5389,11.8354 -39.3386,9.17778"/>
<text text-anchor="middle" x="-28.8439" y="24.4795" font-family="Times,serif" font-size="14.00">13</text>
</g>
</g>
</svg>
