<?xml version="1.0" encoding="UTF-8" standalone="no"?>
<!DOCTYPE svg PUBLIC "-//W3C//DTD SVG 1.1//EN"
 "http://www.w3.org/Graphics/SVG/1.1/DTD/svg11.dtd">
<!-- Generated by graphviz version 2.38.0 (20140413.2041)
 -->
<!-- Title: G Pages: 1 -->
<svg width="242pt" height="404pt"
 viewBox="0.00 0.00 242.00 404.00" xmlns="http://www.w3.org/2000/svg" xmlns:xlink="http://www.w3.org/1999/xlink">
<g id="graph0" class="graph" transform="scale(1 1) rotate(0) translate(4 400)">
<title>G</title>
<polygon fill="white" stroke="none" points="-4,4 -4,-400 238,-400 238,4 -4,4"/>
<!-- n8 -->
<!-- n0 -->
<g id="node2" class="node"><title>n0</title>
<ellipse fill="none" stroke="red" cx="135" cy="-378" rx="27.0966" ry="18"/>
<text text-anchor="middle" x="135" y="-374.3" font-family="Times,serif" font-size="14.00">Start</text>
</g>
<!-- n1 -->
<g id="node3" class="node"><title>n1</title>
<ellipse fill="none" stroke="blue" cx="207" cy="-306" rx="27" ry="18"/>
<text text-anchor="middle" x="207" y="-302.3" font-family="Times,serif" font-size="14.00">B</text>
</g>
<!-- n0&#45;&gt;n1 -->
<g id="edge6" class="edge"><title>n0&#45;&gt;n1</title>
<path fill="none" stroke="black" d="M149.918,-362.496C159.958,-352.735 173.376,-339.69 184.68,-328.7"/>
<polygon fill="black" stroke="black" points="187.37,-330.966 192.101,-321.485 182.491,-325.947 187.37,-330.966"/>
</g>
<!-- n2 -->
<g id="node4" class="node"><title>n2</title>
<ellipse fill="none" stroke="blue" cx="135" cy="-306" rx="27" ry="18"/>
<text text-anchor="middle" x="135" y="-302.3" font-family="Times,serif" font-size="14.00">D</text>
</g>
<!-- n0&#45;&gt;n2 -->
<g id="edge5" class="edge"><title>n0&#45;&gt;n2</title>
<path fill="none" stroke="black" d="M135,-359.697C135,-351.983 135,-342.712 135,-334.112"/>
<polygon fill="black" stroke="black" points="138.5,-334.104 135,-324.104 131.5,-334.104 138.5,-334.104"/>
</g>
<!-- n3 -->
<g id="node5" class="node"><title>n3</title>
<ellipse fill="none" stroke="red" cx="63" cy="-306" rx="27" ry="18"/>
<text text-anchor="middle" x="63" y="-302.3" font-family="Times,serif" font-size="14.00">F</text>
</g>
<!-- n0&#45;&gt;n3 -->
<g id="edge3" class="edge"><title>n0&#45;&gt;n3</title>
<path fill="none" stroke="black" d="M120.082,-362.496C110.042,-352.735 96.6237,-339.69 85.3199,-328.7"/>
<polygon fill="black" stroke="black" points="87.5091,-325.947 77.8993,-321.485 82.6295,-330.966 87.5091,-325.947"/>
</g>
<!-- n4 -->
<g id="node6" class="node"><title>n4</title>
<ellipse fill="none" stroke="blue" cx="63" cy="-234" rx="27" ry="18"/>
<text text-anchor="middle" x="63" y="-230.3" font-family="Times,serif" font-size="14.00">D</text>
</g>
<!-- n3&#45;&gt;n4 -->
<g id="edge8" class="edge"><title>n3&#45;&gt;n4</title>
<path fill="none" stroke="black" d="M63,-287.697C63,-279.983 63,-270.712 63,-262.112"/>
<polygon fill="black" stroke="black" points="66.5001,-262.104 63,-252.104 59.5001,-262.104 66.5001,-262.104"/>
</g>
<!-- n5 -->
<!-- n4&#45;&gt;n5 -->
<!-- n6 -->
<!-- n4&#45;&gt;n6 -->
<!-- n7 -->
<!-- n6&#45;&gt;n7 -->
<!-- n7&#45;&gt;n8 -->
</g>
</svg>
