<?xml version="1.0" encoding="UTF-8" standalone="no"?>
<!DOCTYPE svg PUBLIC "-//W3C//DTD SVG 1.1//EN"
 "http://www.w3.org/Graphics/SVG/1.1/DTD/svg11.dtd">
<!-- Generated by graphviz version 2.38.0 (20140413.2041)
 -->
<!-- Title: G Pages: 1 -->
<svg width="278pt" height="260pt"
 viewBox="0.00 0.00 278.00 260.00" xmlns="http://www.w3.org/2000/svg" xmlns:xlink="http://www.w3.org/1999/xlink">
<g id="graph0" class="graph" transform="scale(1 1) rotate(0) translate(4 256)">
<title>G</title>
<polygon fill="white" stroke="none" points="-4,4 -4,-256 274,-256 274,4 -4,4"/>
<!-- n1005 -->
<g id="node1" class="node"><title>n1005</title>
<ellipse fill="none" stroke="red" cx="171" cy="-90" rx="27" ry="18"/>
<text text-anchor="middle" x="171" y="-86.3" font-family="Times,serif" font-size="14.00">F</text>
</g>
<!-- n1015 -->
<g id="node8" class="node"><title>n1015</title>
<ellipse fill="none" stroke="blue" cx="171" cy="-18" rx="27" ry="18"/>
<text text-anchor="middle" x="171" y="-14.3" font-family="Times,serif" font-size="14.00">Ziel</text>
</g>
<!-- n1005&#45;&#45;n1015 -->
<g id="edge6" class="edge"><title>n1005&#45;&#45;n1015</title>
<path fill="none" stroke="black" d="M171,-71.6966C171,-60.8463 171,-46.9167 171,-36.1043"/>
</g>
<!-- n1001 -->
<g id="node2" class="node"><title>n1001</title>
<ellipse fill="none" stroke="red" cx="153" cy="-162" rx="27" ry="18"/>
<text text-anchor="middle" x="153" y="-158.3" font-family="Times,serif" font-size="14.00">B</text>
</g>
<!-- n1001&#45;&#45;n1005 -->
<g id="edge5" class="edge"><title>n1001&#45;&#45;n1005</title>
<path fill="none" stroke="black" d="M157.357,-144.055C160.187,-133.049 163.861,-118.764 166.683,-107.789"/>
</g>
<!-- n1003 -->
<g id="node4" class="node"><title>n1003</title>
<ellipse fill="none" stroke="red" cx="243" cy="-90" rx="27" ry="18"/>
<text text-anchor="middle" x="243" y="-86.3" font-family="Times,serif" font-size="14.00">C</text>
</g>
<!-- n1001&#45;&#45;n1003 -->
<g id="edge7" class="edge"><title>n1001&#45;&#45;n1003</title>
<path fill="none" stroke="black" d="M169.928,-147.834C186.019,-135.319 210.082,-116.603 226.148,-104.107"/>
</g>
<!-- n1004 -->
<g id="node10" class="node"><title>n1004</title>
<ellipse fill="none" stroke="red" cx="99" cy="-90" rx="27" ry="18"/>
<text text-anchor="middle" x="99" y="-86.3" font-family="Times,serif" font-size="14.00">D</text>
</g>
<!-- n1001&#45;&#45;n1004 -->
<g id="edge4" class="edge"><title>n1001&#45;&#45;n1004</title>
<path fill="none" stroke="magenta" d="M141.016,-145.465C132.067,-133.865 119.892,-118.082 110.951,-106.492"/>
</g>
<!-- n1002 -->
<g id="node3" class="node"><title>n1002</title>
<ellipse fill="none" stroke="red" cx="63" cy="-162" rx="27" ry="18"/>
<text text-anchor="middle" x="63" y="-158.3" font-family="Times,serif" font-size="14.00">C</text>
</g>
<!-- n1008 -->
<g id="node5" class="node"><title>n1008</title>
<ellipse fill="none" stroke="red" cx="27" cy="-90" rx="27" ry="18"/>
<text text-anchor="middle" x="27" y="-86.3" font-family="Times,serif" font-size="14.00">E</text>
</g>
<!-- n1002&#45;&#45;n1008 -->
<g id="edge3" class="edge"><title>n1002&#45;&#45;n1008</title>
<path fill="none" stroke="black" d="M54.6504,-144.765C48.8345,-133.456 41.1103,-118.437 35.3043,-107.147"/>
</g>
<!-- n1011 -->
<g id="node6" class="node"><title>n1011</title>
<ellipse fill="none" stroke="red" cx="27" cy="-18" rx="27" ry="18"/>
<text text-anchor="middle" x="27" y="-14.3" font-family="Times,serif" font-size="14.00">E</text>
</g>
<!-- n1012 -->
<g id="node7" class="node"><title>n1012</title>
<ellipse fill="none" stroke="magenta" cx="99" cy="-18" rx="27" ry="18"/>
<text text-anchor="middle" x="99" y="-14.3" font-family="Times,serif" font-size="14.00">F</text>
</g>
<!-- n999 -->
<g id="node9" class="node"><title>n999</title>
<ellipse fill="none" stroke="red" cx="108" cy="-234" rx="27.0966" ry="18"/>
<text text-anchor="middle" x="108" y="-230.3" font-family="Times,serif" font-size="14.00">Start</text>
</g>
<!-- n999&#45;&#45;n1001 -->
<g id="edge8" class="edge"><title>n999&#45;&#45;n1001</title>
<path fill="none" stroke="magenta" d="M118.211,-217.116C125.576,-205.66 135.474,-190.263 142.829,-178.821"/>
</g>
<!-- n999&#45;&#45;n1002 -->
<g id="edge2" class="edge"><title>n999&#45;&#45;n1002</title>
<path fill="none" stroke="black" d="M97.7888,-217.116C90.4243,-205.66 80.526,-190.263 73.1708,-178.821"/>
</g>
<!-- n1004&#45;&#45;n1011 -->
<g id="edge1" class="edge"><title>n1004&#45;&#45;n1011</title>
<path fill="none" stroke="black" d="M84.4297,-74.8345C72.0202,-62.7697 54.2694,-45.5119 41.7957,-33.3847"/>
</g>
<!-- n1004&#45;&#45;n1012 -->
<g id="edge9" class="edge"><title>n1004&#45;&#45;n1012</title>
<path fill="none" stroke="magenta" d="M99,-71.6966C99,-60.8463 99,-46.9167 99,-36.1043"/>
</g>
</g>
</svg>
