<?xml version="1.0" encoding="UTF-8" standalone="no"?>
<!DOCTYPE svg PUBLIC "-//W3C//DTD SVG 1.1//EN"
 "http://www.w3.org/Graphics/SVG/1.1/DTD/svg11.dtd">
<!-- Generated by graphviz version 2.38.0 (20140413.2041)
 -->
<!-- Title: G Pages: 1 -->
<svg width="278pt" height="260pt"
 viewBox="0.00 0.00 278.00 260.00" xmlns="http://www.w3.org/2000/svg" xmlns:xlink="http://www.w3.org/1999/xlink">
<g id="graph0" class="graph" transform="scale(1 1) rotate(0) translate(4 256)">
<title>G</title>
<polygon fill="white" stroke="none" points="-4,4 -4,-256 274,-256 274,4 -4,4"/>
<!-- n1003 -->
<g id="node1" class="node"><title>n1003</title>
<ellipse fill="none" stroke="red" cx="27" cy="-90" rx="27" ry="18"/>
<text text-anchor="middle" x="27" y="-86.3" font-family="Times,serif" font-size="14.00">C</text>
</g>
<!-- n1005 -->
<g id="node2" class="node"><title>n1005</title>
<ellipse fill="none" stroke="red" cx="99" cy="-90" rx="27" ry="18"/>
<text text-anchor="middle" x="99" y="-86.3" font-family="Times,serif" font-size="14.00">F</text>
</g>
<!-- n1015 -->
<g id="node8" class="node"><title>n1015</title>
<ellipse fill="none" stroke="blue" cx="99" cy="-18" rx="27" ry="18"/>
<text text-anchor="middle" x="99" y="-14.3" font-family="Times,serif" font-size="14.00">Ziel</text>
</g>
<!-- n1005&#45;&#45;n1015 -->
<g id="edge4" class="edge"><title>n1005&#45;&#45;n1015</title>
<path fill="none" stroke="black" d="M99,-71.6966C99,-60.8463 99,-46.9167 99,-36.1043"/>
</g>
<!-- n1002 -->
<g id="node3" class="node"><title>n1002</title>
<ellipse fill="none" stroke="red" cx="225" cy="-162" rx="27" ry="18"/>
<text text-anchor="middle" x="225" y="-158.3" font-family="Times,serif" font-size="14.00">C</text>
</g>
<!-- n1008 -->
<g id="node5" class="node"><title>n1008</title>
<ellipse fill="none" stroke="red" cx="243" cy="-90" rx="27" ry="18"/>
<text text-anchor="middle" x="243" y="-86.3" font-family="Times,serif" font-size="14.00">E</text>
</g>
<!-- n1002&#45;&#45;n1008 -->
<g id="edge9" class="edge"><title>n1002&#45;&#45;n1008</title>
<path fill="none" stroke="black" d="M229.357,-144.055C232.187,-133.049 235.861,-118.764 238.683,-107.789"/>
</g>
<!-- n1001 -->
<g id="node4" class="node"><title>n1001</title>
<ellipse fill="none" stroke="red" cx="117" cy="-162" rx="27" ry="18"/>
<text text-anchor="middle" x="117" y="-158.3" font-family="Times,serif" font-size="14.00">B</text>
</g>
<!-- n1001&#45;&#45;n1003 -->
<g id="edge1" class="edge"><title>n1001&#45;&#45;n1003</title>
<path fill="none" stroke="black" d="M100.072,-147.834C83.9811,-135.319 59.9178,-116.603 43.8524,-104.107"/>
</g>
<!-- n1001&#45;&#45;n1005 -->
<g id="edge5" class="edge"><title>n1001&#45;&#45;n1005</title>
<path fill="none" stroke="black" d="M112.643,-144.055C109.813,-133.049 106.139,-118.764 103.317,-107.789"/>
</g>
<!-- n1004 -->
<g id="node9" class="node"><title>n1004</title>
<ellipse fill="none" stroke="red" cx="171" cy="-90" rx="27" ry="18"/>
<text text-anchor="middle" x="171" y="-86.3" font-family="Times,serif" font-size="14.00">D</text>
</g>
<!-- n1001&#45;&#45;n1004 -->
<g id="edge7" class="edge"><title>n1001&#45;&#45;n1004</title>
<path fill="none" stroke="magenta" d="M128.984,-145.465C137.933,-133.865 150.108,-118.082 159.049,-106.492"/>
</g>
<!-- n1011 -->
<g id="node6" class="node"><title>n1011</title>
<ellipse fill="none" stroke="magenta" cx="171" cy="-18" rx="27" ry="18"/>
<text text-anchor="middle" x="171" y="-14.3" font-family="Times,serif" font-size="14.00">E</text>
</g>
<!-- n1012 -->
<g id="node7" class="node"><title>n1012</title>
<ellipse fill="none" stroke="blue" cx="243" cy="-18" rx="27" ry="18"/>
<text text-anchor="middle" x="243" y="-14.3" font-family="Times,serif" font-size="14.00">F</text>
</g>
<!-- n1004&#45;&#45;n1011 -->
<g id="edge2" class="edge"><title>n1004&#45;&#45;n1011</title>
<path fill="none" stroke="magenta" d="M171,-71.6966C171,-60.8463 171,-46.9167 171,-36.1043"/>
</g>
<!-- n1004&#45;&#45;n1012 -->
<g id="edge6" class="edge"><title>n1004&#45;&#45;n1012</title>
<path fill="none" stroke="black" d="M185.57,-74.8345C197.98,-62.7697 215.731,-45.5119 228.204,-33.3847"/>
</g>
<!-- n999 -->
<g id="node10" class="node"><title>n999</title>
<ellipse fill="none" stroke="red" cx="171" cy="-234" rx="27.0966" ry="18"/>
<text text-anchor="middle" x="171" y="-230.3" font-family="Times,serif" font-size="14.00">Start</text>
</g>
<!-- n999&#45;&#45;n1002 -->
<g id="edge8" class="edge"><title>n999&#45;&#45;n1002</title>
<path fill="none" stroke="black" d="M182.984,-217.465C191.933,-205.865 204.108,-190.082 213.049,-178.492"/>
</g>
<!-- n999&#45;&#45;n1001 -->
<g id="edge3" class="edge"><title>n999&#45;&#45;n1001</title>
<path fill="none" stroke="magenta" d="M159.016,-217.465C150.067,-205.865 137.892,-190.082 128.951,-178.492"/>
</g>
</g>
</svg>
