<?xml version="1.0" encoding="UTF-8" standalone="no"?>
<!DOCTYPE svg PUBLIC "-//W3C//DTD SVG 1.1//EN"
 "http://www.w3.org/Graphics/SVG/1.1/DTD/svg11.dtd">
<!-- Generated by graphviz version 2.38.0 (20140413.2041)
 -->
<!-- Title: G Pages: 1 -->
<svg width="330pt" height="319pt"
 viewBox="0.00 0.00 330.11 319.00" xmlns="http://www.w3.org/2000/svg" xmlns:xlink="http://www.w3.org/1999/xlink">
<g id="graph0" class="graph" transform="scale(1 1) rotate(0) translate(4 315.003)">
<title>G</title>
<polygon fill="white" stroke="none" points="-4,4 -4,-315.003 326.108,-315.003 326.108,4 -4,4"/>
<!-- C -->
<g id="node1" class="node"><title>C</title>
<ellipse fill="none" stroke="black" cx="242.006" cy="-45.2339" rx="27" ry="18"/>
<text text-anchor="middle" x="242.006" y="-41.5339" font-family="Times,serif" font-size="14.00">C</text>
</g>
<!-- Ziel -->
<g id="node7" class="node"><title>Ziel</title>
<ellipse fill="none" stroke="black" cx="122.687" cy="-18" rx="27" ry="18"/>
<text text-anchor="middle" x="122.687" y="-14.3" font-family="Times,serif" font-size="14.00">Ziel</text>
</g>
<!-- C&#45;&gt;Ziel -->
<g id="edge8" class="edge"><title>C&#45;&gt;Ziel</title>
<path fill="none" stroke="black" d="M219.937,-34.5747C203.148,-29.3303 179.667,-23.7081 159.982,-20.1016"/>
<polygon fill="black" stroke="black" points="160.535,-16.6456 150.089,-18.4121 159.357,-23.5457 160.535,-16.6456"/>
</g>
<!-- B -->
<g id="node2" class="node"><title>B</title>
<ellipse fill="none" stroke="blue" cx="27" cy="-94.3076" rx="27" ry="18"/>
<text text-anchor="middle" x="27" y="-90.6076" font-family="Times,serif" font-size="14.00">B</text>
</g>
<!-- D -->
<g id="node4" class="node"><title>D</title>
<ellipse fill="none" stroke="red" cx="27" cy="-216.696" rx="27" ry="18"/>
<text text-anchor="middle" x="27" y="-212.996" font-family="Times,serif" font-size="14.00">D</text>
</g>
<!-- B&#45;&gt;D -->
<g id="edge9" class="edge"><title>B&#45;&gt;D</title>
<path fill="none" stroke="black" d="M27,-112.366C27,-132.433 27,-165.089 27,-188.523"/>
<polygon fill="black" stroke="black" points="23.5001,-188.563 27,-198.563 30.5001,-188.563 23.5001,-188.563"/>
</g>
<!-- E -->
<g id="node3" class="node"><title>E</title>
<ellipse fill="none" stroke="black" cx="295.108" cy="-155.502" rx="27" ry="18"/>
<text text-anchor="middle" x="295.108" y="-151.802" font-family="Times,serif" font-size="14.00">E</text>
</g>
<!-- E&#45;&gt;C -->
<g id="edge7" class="edge"><title>E&#45;&gt;C</title>
<path fill="none" stroke="black" d="M286.811,-138.272C278.249,-120.493 264.779,-92.5226 254.842,-71.8882"/>
<polygon fill="black" stroke="black" points="257.913,-70.1972 250.42,-62.7061 251.606,-73.2344 257.913,-70.1972"/>
</g>
<!-- F -->
<g id="node5" class="node"><title>F</title>
<ellipse fill="none" stroke="red" cx="242.006" cy="-265.769" rx="27" ry="18"/>
<text text-anchor="middle" x="242.006" y="-262.069" font-family="Times,serif" font-size="14.00">F</text>
</g>
<!-- E&#45;&gt;F -->
<g id="edge2" class="edge"><title>E&#45;&gt;F</title>
<path fill="none" stroke="black" d="M286.811,-172.731C278.249,-190.51 264.779,-218.481 254.842,-239.115"/>
<polygon fill="black" stroke="black" points="251.606,-237.769 250.42,-248.297 257.913,-240.806 251.606,-237.769"/>
</g>
<!-- Start -->
<g id="node6" class="node"><title>Start</title>
<ellipse fill="none" stroke="red" cx="122.687" cy="-293.003" rx="27.0966" ry="18"/>
<text text-anchor="middle" x="122.687" y="-289.303" font-family="Times,serif" font-size="14.00">Start</text>
</g>
<!-- E&#45;&gt;Start -->
<g id="edge10" class="edge"><title>E&#45;&gt;Start</title>
<path fill="none" stroke="black" d="M277.627,-169.443C247.032,-193.841 183.668,-244.373 148.181,-272.672"/>
<polygon fill="black" stroke="black" points="145.851,-270.054 140.215,-279.025 150.215,-275.527 145.851,-270.054"/>
</g>
<!-- D&#45;&gt;C -->
<g id="edge13" class="edge"><title>D&#45;&gt;C</title>
<path fill="none" stroke="black" d="M44.5949,-202.664C82.5656,-172.384 172.324,-100.804 216.519,-65.5595"/>
<polygon fill="black" stroke="black" points="218.834,-68.1901 224.47,-59.2187 214.469,-62.7172 218.834,-68.1901"/>
</g>
<!-- D&#45;&gt;E -->
<g id="edge4" class="edge"><title>D&#45;&gt;E</title>
<path fill="none" stroke="black" d="M52.7074,-210.828C100.851,-199.84 204.681,-176.141 259.515,-163.625"/>
<polygon fill="black" stroke="black" points="260.508,-166.989 269.479,-161.351 258.951,-160.164 260.508,-166.989"/>
</g>
<!-- F&#45;&gt;D -->
<g id="edge12" class="edge"><title>F&#45;&gt;D</title>
<path fill="none" stroke="magenta" d="M216.071,-259.85C177.71,-251.094 105.732,-234.666 62.5026,-224.799"/>
<polygon fill="magenta" stroke="magenta" points="63.2202,-221.373 52.6921,-222.56 61.6625,-228.197 63.2202,-221.373"/>
</g>
<!-- Start&#45;&gt;B -->
<g id="edge5" class="edge"><title>Start&#45;&gt;B</title>
<path fill="none" stroke="black" d="M114.363,-275.718C97.6091,-240.929 59.7241,-162.26 39.7988,-120.885"/>
<polygon fill="black" stroke="black" points="42.8654,-119.186 35.3731,-111.695 36.5586,-122.223 42.8654,-119.186"/>
</g>
<!-- Start&#45;&gt;D -->
<g id="edge1" class="edge"><title>Start&#45;&gt;D</title>
<path fill="none" stroke="black" d="M105.136,-279.007C90.4341,-267.283 69.2484,-250.388 52.6452,-237.147"/>
<polygon fill="black" stroke="black" points="54.4397,-234.101 44.4392,-230.603 50.0753,-239.574 54.4397,-234.101"/>
</g>
<!-- Start&#45;&gt;F -->
<g id="edge3" class="edge"><title>Start&#45;&gt;F</title>
<path fill="none" stroke="magenta" d="M148.577,-287.094C165.464,-283.24 187.733,-278.157 206.294,-273.92"/>
<polygon fill="magenta" stroke="magenta" points="207.196,-277.305 216.166,-271.667 205.638,-270.48 207.196,-277.305"/>
</g>
<!-- Ziel&#45;&gt;C -->
<g id="edge6" class="edge"><title>Ziel&#45;&gt;C</title>
<path fill="none" stroke="black" d="M144.756,-28.6592C161.545,-33.9036 185.026,-39.5258 204.711,-43.1323"/>
<polygon fill="black" stroke="black" points="204.158,-46.5883 214.604,-44.8218 205.336,-39.6882 204.158,-46.5883"/>
</g>
<!-- Ziel&#45;&gt;B -->
<g id="edge11" class="edge"><title>Ziel&#45;&gt;B</title>
<path fill="none" stroke="black" d="M105.136,-31.996C90.4341,-43.7206 69.2484,-60.6156 52.6452,-73.8562"/>
<polygon fill="black" stroke="black" points="50.0753,-71.429 44.4392,-80.4004 54.4397,-76.9018 50.0753,-71.429"/>
</g>
</g>
</svg>
