<?xml version="1.0" encoding="UTF-8" standalone="no"?>
<!DOCTYPE svg PUBLIC "-//W3C//DTD SVG 1.1//EN"
 "http://www.w3.org/Graphics/SVG/1.1/DTD/svg11.dtd">
<!-- Generated by graphviz version 2.38.0 (20140413.2041)
 -->
<!-- Title: G Pages: 1 -->
<svg width="206pt" height="364pt"
 viewBox="0.00 0.00 206.00 364.00" xmlns="http://www.w3.org/2000/svg" xmlns:xlink="http://www.w3.org/1999/xlink">
<g id="graph0" class="graph" transform="scale(1 1) rotate(0) translate(4 360)">
<title>G</title>
<polygon fill="white" stroke="none" points="-4,4 -4,-360 202,-360 202,4 -4,4"/>
<!-- n1003 -->
<g id="node1" class="node"><title>n1003</title>
<ellipse fill="none" stroke="blue" cx="99" cy="-164" rx="27" ry="18"/>
<text text-anchor="middle" x="99" y="-160.3" font-family="Times,serif" font-size="14.00">B</text>
</g>
<!-- n1007 -->
<!-- n1003&#45;&#45;n1007 -->
<!-- n1008 -->
<!-- n1003&#45;&#45;n1008 -->
<!-- n1002 -->
<g id="node2" class="node"><title>n1002</title>
<ellipse fill="none" stroke="red" cx="145" cy="-251" rx="27" ry="18"/>
<text text-anchor="middle" x="145" y="-247.3" font-family="Times,serif" font-size="14.00">C</text>
</g>
<!-- n1002&#45;&#45;n1003 -->
<g id="edge6" class="edge"><title>n1002&#45;&#45;n1003</title>
<path fill="none" stroke="black" d="M136.131,-233.611C127.933,-218.463 115.825,-196.089 107.686,-181.05"/>
<text text-anchor="middle" x="128.5" y="-203.8" font-family="Times,serif" font-size="14.00">9</text>
</g>
<!-- n1004 -->
<g id="node9" class="node"><title>n1004</title>
<ellipse fill="none" stroke="blue" cx="171" cy="-164" rx="27" ry="18"/>
<text text-anchor="middle" x="171" y="-160.3" font-family="Times,serif" font-size="14.00">E</text>
</g>
<!-- n1002&#45;&#45;n1004 -->
<g id="edge7" class="edge"><title>n1002&#45;&#45;n1004</title>
<path fill="none" stroke="black" d="M150.137,-233.207C154.695,-218.305 161.319,-196.649 165.874,-181.758"/>
<text text-anchor="middle" x="163.5" y="-203.8" font-family="Times,serif" font-size="14.00">9</text>
</g>
<!-- n1001 -->
<g id="node3" class="node"><title>n1001</title>
<ellipse fill="none" stroke="blue" cx="73" cy="-251" rx="27" ry="18"/>
<text text-anchor="middle" x="73" y="-247.3" font-family="Times,serif" font-size="14.00">B</text>
</g>
<!-- n1017 -->
<!-- n1008&#45;&#45;n1017 -->
<!-- n1011 -->
<!-- n1014 -->
<!-- n1011&#45;&#45;n1014 -->
<!-- n1004&#45;&#45;n1011 -->
<!-- n999 -->
<g id="node10" class="node"><title>n999</title>
<ellipse fill="none" stroke="red" cx="100" cy="-338" rx="27.0966" ry="18"/>
<text text-anchor="middle" x="100" y="-334.3" font-family="Times,serif" font-size="14.00">Start</text>
</g>
<!-- n999&#45;&#45;n1002 -->
<g id="edge8" class="edge"><title>n999&#45;&#45;n1002</title>
<path fill="none" stroke="magenta" d="M108.676,-320.611C116.645,-305.56 128.39,-283.374 136.35,-268.339"/>
<text text-anchor="middle" x="133" y="-290.8" font-family="Times,serif" font-size="14.00">10</text>
</g>
<!-- n999&#45;&#45;n1001 -->
<g id="edge4" class="edge"><title>n999&#45;&#45;n1001</title>
<path fill="none" stroke="black" d="M94.6657,-320.207C89.9322,-305.305 83.0534,-283.649 78.3232,-268.758"/>
<text text-anchor="middle" x="96" y="-290.8" font-family="Times,serif" font-size="14.00">20</text>
</g>
</g>
</svg>
